<svg width="21" height="20" viewBox="0 0 21 20" fill="none" xmlns="http://www.w3.org/2000/svg">
<path d="M16.2971 0H4.6305C2.32969 0 0.463867 1.86582 0.463867 4.16664V15.8332C0.463867 18.134 2.32969 19.9998 4.6305 19.9998H16.2971C18.5987 19.9998 20.4637 18.134 20.4637 15.8332V4.16664C20.4637 1.86582 18.5987 0 16.2971 0ZM7.13048 15.8332H4.6305V6.66662H7.13048V15.8332ZM5.88049 5.60996C5.0755 5.60996 4.42217 4.95163 4.42217 4.13997C4.42217 3.32831 5.0755 2.66998 5.88049 2.66998C6.68549 2.66998 7.33882 3.32831 7.33882 4.13997C7.33882 4.95163 6.68632 5.60996 5.88049 5.60996ZM17.1304 15.8332H14.6304V11.1632C14.6304 8.3566 11.2971 8.5691 11.2971 11.1632V15.8332H8.79714V6.66662H11.2971V8.13744C12.4604 5.98246 17.1304 5.82329 17.1304 10.2008V15.8332Z" fill="white"/>
</svg>
